<?xml version="1.0" encoding="utf-8"?>
<!-- Generator: Adobe Illustrator 26.3.1, SVG Export Plug-In . SVG Version: 6.00 Build 0)  -->
<svg version="1.1" id="Layer_1" xmlns="http://www.w3.org/2000/svg" xmlns:xlink="http://www.w3.org/1999/xlink" x="0px" y="0px"
	 viewBox="0 0 612 99" style="enable-background:new 0 0 612 99;" xml:space="preserve">
<style type="text/css">
	.st0{fill:#008855;}
	.st1{fill:#FFFFFF;}
	.st2{fill:#163967;}
	.st3{fill:#009554;}
</style>
<g>
	<rect x="1" y="1" class="st0" width="98.2" height="96.5"/>
	<path d="M0,98.5h100.2V0H0V98.5z M2,18.2c4,17.6,17.2,31.6,34.6,36.6H2V18.2z M98.2,18.7v36.1H63.7C80.9,49.8,94.1,36.1,98.2,18.7
		 M2,66.3h42.4v30.1H2V66.3z M56,66.3h42.2v30.1H56V66.3z"/>
	<polygon class="st1" points="98.2,1.9 2.1,1.9 2.1,10.5 45.8,10.5 45.8,46.2 54.4,46.2 54.4,10.5 98.2,10.5 	"/>
</g>
<path class="st2" d="M143.1,28.2c0,6.7-5.3,10.6-14,10.6c-5.1,0-10.7-0.2-16.8-0.4v-37c6.1-0.2,11.4-0.3,16.1-0.3
	c8.3,0,13.3,3.6,13.3,9.9c0.1,4-2.5,7.6-6.4,8.8C140,20.7,143.1,24.1,143.1,28.2 M121.5,8.5v8.2h6.5c3.1,0,5.2-1.7,5.2-4.3
	s-2-3.9-5.8-3.9H121.5z M134.2,26.9c0-2.4-2.1-3.8-5.3-3.8h-7.4v7.9c0.6,0,1.6,0.1,3.2,0.1c1.6,0.1,2.7,0.1,3.3,0.1
	C132.1,31.2,134.2,29.8,134.2,26.9"/>
<path class="st2" d="M157.5,38.2h-10L164,1h8.5L189,38.2h-10l-2.6-6.1H160L157.5,38.2z M163.2,24.3h10.2L168.3,12L163.2,24.3z"/>
<polygon class="st2" points="230.7,38 222.4,38 205.2,16.5 205.2,38 196,38 196,1 204.5,1 221.6,22.7 221.6,1 230.7,1 "/>
<polygon class="st2" points="249.9,38 240.7,38 240.7,1 249.9,1 249.9,16.6 251.7,16.6 263.8,1 274.9,1 261.4,18.2 275.7,38 
	264.5,38 255.6,25.5 249.9,25.5 "/>
<path class="st2" d="M314.8,1c-10.7,0-19.3,8.6-19.3,19.3s8.6,19.3,19.3,19.3c10.7,0,19.3-8.6,19.3-19.3c0,0,0,0,0,0
	C334.1,9.6,325.4,1,314.8,1 M314.8,30.7c-5.7,0-10.4-4.7-10.4-10.4S309,9.9,314.8,9.9c5.7,0,10.4,4.7,10.4,10.4
	S320.5,30.7,314.8,30.7"/>
<polygon class="st2" points="366.7,17.1 366.7,25.4 351.2,25.4 351.2,38 342,38 342,1 369.2,1 369.2,9.1 351.2,9.1 351.2,17.1 "/>
<path class="st2" d="M399.6,38.2h-10L406.1,1h8.5l16.4,37.2h-10l-2.6-6.1h-16.4L399.6,38.2z M405.3,24.3h10.2L410.3,12L405.3,24.3z"
	/>
<polygon class="st2" points="462.8,17.1 462.8,25.4 447.2,25.4 447.2,38 438.1,38 438.1,1 465.2,1 465.2,9.1 447.2,9.1 447.2,17.1 
	"/>
<path class="st2" d="M485.4,27.7h-3.9v10.6h-9.1v-37c5.1-0.2,10-0.3,14.9-0.3c9.7,0,15.6,4.7,15.6,13.2c0.1,4.6-2.4,9-6.4,11.2
	l8.9,12.9h-10.9l-6.8-10.6H485.4z M487.4,20c3.8,0,6.3-2.3,6.3-5.7c0-3.6-2.2-5.4-6.6-5.4c-0.5,0-1.5,0-2.7,0.1h-2.8v11H487.4z"/>
<rect x="512" y="1" class="st2" width="9.2" height="37"/>
<path class="st2" d="M562.2,11.1c-3.6-0.8-7.2-1.3-10.9-1.5c-7.6,0-12,4.3-12,10.5c-0.1,3,1,5.8,3.1,7.9c2.3,2.1,5.3,3.1,8.4,3
	c3.8-0.1,7.6-0.6,11.4-1.5l1.5,8c-4.4,1.3-9,1.9-13.5,2c-6.2,0-11.2-1.8-15-5.3c-3.8-3.5-5.7-8.2-5.7-14s1.9-10.4,5.7-13.9
	c3.8-3.5,8.8-5.3,15-5.3c4.6,0,9.1,0.6,13.5,1.8L562.2,11.1z"/>
<path class="st2" d="M579.4,38.2h-10L585.9,1h8.5l16.5,37.2h-10l-2.6-6.1h-16.4L579.4,38.2z M585.1,24.3h10.2L590.1,12L585.1,24.3z"
	/>
<path class="st2" d="M603.9,57.6c-9.3-9.3-24.3-9.3-33.5,0c-9.3,9.3-9.3,24.3,0,33.5s24.3,9.3,33.5,0c0,0,0,0,0,0
	C613.2,81.8,613.2,66.8,603.9,57.6 M600.5,84.6c-7.4,7.4-19.4,7.4-26.8,0c-7.4-7.4-7.4-19.4,0-26.8c7.4-7.4,19.4-7.4,26.8,0
	C608,65.2,608,77.2,600.5,84.6C600.6,84.6,600.6,84.6,600.5,84.6"/>
<g>
	<polygon class="st3" points="593.6,57.4 580.2,57.4 574.8,63.6 578.1,68.9 584.4,70.1 589.2,86.2 598.9,66.3 	"/>
	<polygon class="st3" points="595.4,78.5 593.4,82 595.9,81.5 596.8,77.7 	"/>
</g>
<path class="st2" d="M311.9,79.9c0,3.7-2.8,5.8-7.7,5.8c-2.8,0-5.8-0.1-8.9-0.3V65.3c3.4-0.1,6.2-0.1,8.4-0.1c4.6,0,7.2,1.9,7.2,5.4
	c0,2.2-1.5,4.2-3.7,4.7C310.2,75.7,311.9,77.6,311.9,79.9 M301.5,68.8h-1.9v4.9h4.2c1.9,0,3.2-1,3.2-2.5c0-1.5-1.2-2.3-3.7-2.3
	C302.9,68.8,302.4,68.8,301.5,68.8 M307.7,79.4c0-1.4-1.3-2.3-3.3-2.3h-4.8v4.7c2,0.1,3.3,0.1,4.1,0.1
	C306.4,81.9,307.7,81.1,307.7,79.4"/>
<polygon class="st2" points="331.7,85.4 328.1,85.4 323,74.7 322.2,85.4 318.1,85.4 319.2,65.3 323.2,65.3 329.9,80.1 336.6,65.3 
	340.6,65.3 341.7,85.4 337.5,85.4 336.8,74.7 "/>
<path class="st2" d="M365.2,69.7c-1.9-0.4-3.8-0.7-5.8-0.8c-1.9-0.1-3.9,0.5-5.4,1.7c-1.2,1.2-1.9,2.8-1.9,4.6
	c-0.1,1.8,0.6,3.5,1.9,4.8c1.4,1.2,3.2,1.9,5,1.8c2.1-0.1,4.1-0.4,6.1-0.9l0.7,3.8c-2.3,0.7-4.7,1.1-7.1,1.2c-3,0.1-5.9-0.9-8.1-2.9
	c-2.1-2-3.2-4.8-3.1-7.6c-0.1-2.8,1-5.6,3.1-7.6c2.2-2,5.1-3,8.1-2.9c2.4,0,4.8,0.3,7.1,0.9L365.2,69.7z"/>
<polygon class="st2" points="386.3,73.4 386.3,77.3 377,77.3 377,81.5 387.6,81.5 387.6,85.4 372.7,85.4 372.7,65.3 387.6,65.3 
	387.6,69.1 377,69.1 377,73.4 "/>
<path class="st2" d="M423.6,83.6c-2.9,1.3-6.1,2.1-9.3,2.2c-2.9,0.1-5.7-0.9-7.8-2.9c-2-2-3.1-4.8-3-7.7c-0.1-2.8,1-5.6,3.1-7.5
	c2.2-2,5.2-3,8.2-2.9c2.4,0,4.7,0.3,7,0.9l-0.8,3.9c-1.9-0.4-3.9-0.6-5.9-0.7c-1.9-0.1-3.7,0.5-5.2,1.7c-1.3,1.2-2,2.8-2,4.6
	c-0.1,1.7,0.6,3.4,1.7,4.7c1.2,1.2,2.9,1.8,4.6,1.7c1.8,0,3.6-0.3,5.4-0.8v-3.5h-6.8v-3.8h10.8L423.6,83.6z"/>
<path class="st2" d="M437.1,79.2h-2.4v6.1h-4.3V65.3c3.1-0.1,5.7-0.2,7.7-0.2c5.1,0,8.2,2.5,8.2,7c0,2.6-1.5,4.9-3.8,6.1l5.1,7.2
	h-5.2l-4.1-6.1L437.1,79.2z M438.6,75.5c1.9,0.1,3.5-1.2,3.7-3.1c0-0.1,0-0.2,0-0.3c0-2.2-1.5-3.2-4-3.2c-1.6,0-2.7,0-3.5,0v6.6
	L438.6,75.5z"/>
<path class="st2" d="M463,64.8c2.9-0.1,5.7,0.9,7.8,2.9c2,2,3.1,4.8,3,7.6c0.1,2.8-1,5.6-3,7.6c-4.5,3.9-11.1,3.9-15.5,0
	c-2-2-3.1-4.8-3-7.6c-0.1-2.8,1-5.6,3-7.6C457.3,65.8,460.1,64.7,463,64.8 M463,81.8c1.7,0.1,3.3-0.6,4.5-1.8c1.2-1.3,1.8-3,1.8-4.7
	c0.1-1.7-0.6-3.4-1.8-4.7c-2.5-2.4-6.5-2.4-9.1,0c-1.2,1.2-1.9,2.9-1.8,4.7c-0.1,1.7,0.6,3.4,1.8,4.7
	C459.7,81.2,461.3,81.9,463,81.8"/>
<path class="st2" d="M498.3,76.5c0.3,5.1-3.6,9.4-8.7,9.7c-5.1,0.3-9.4-3.6-9.7-8.7c0-0.3,0-0.7,0-1V65.3h4.3v11.3
	c0,3.3,1.9,5.3,4.9,5.3c3,0,4.9-2,4.9-5.3V65.3h4.3V76.5z"/>
<path class="st2" d="M518.9,67c1.6,1.3,2.4,3.2,2.3,5.2c0.1,2-0.8,4-2.4,5.3c-1.7,1.4-3.9,2.1-6.1,2h-3.2v5.9h-4.3V65.3
	c2.9-0.2,5.4-0.3,7.4-0.3C514.9,64.9,517.1,65.6,518.9,67 M513.1,75.6c2.3,0,3.9-1.4,3.9-3.5s-1.6-3.3-3.9-3.3c-1.6,0-2.8,0-3.5,0.1
	v6.7L513.1,75.6z"/>
</svg>
